<svg width="125" height="16" viewBox="0 0 125 16" fill="none" xmlns="http://www.w3.org/2000/svg">
<path d="M0.646448 7.64645C0.451185 7.84171 0.451185 8.15829 0.646448 8.35355L3.82843 11.5355C4.02369 11.7308 4.34027 11.7308 4.53553 11.5355C4.7308 11.3403 4.7308 11.0237 4.53553 10.8284L1.70711 8L4.53553 5.17157C4.7308 4.97631 4.7308 4.65973 4.53553 4.46447C4.34027 4.2692 4.02369 4.2692 3.82843 4.46447L0.646448 7.64645ZM17 7.5L1 7.5V8.5L17 8.5V7.5Z" fill="white"/>
<path d="M23.8789 3.41016H27.3125C27.9922 3.41016 28.498 3.43945 28.8301 3.49805C29.166 3.55273 29.4648 3.66992 29.7266 3.84961C29.9922 4.0293 30.2129 4.26953 30.3887 4.57031C30.5645 4.86719 30.6523 5.20117 30.6523 5.57227C30.6523 5.97461 30.543 6.34375 30.3242 6.67969C30.1094 7.01562 29.8164 7.26758 29.4453 7.43555C29.9688 7.58789 30.3711 7.84766 30.6523 8.21484C30.9336 8.58203 31.0742 9.01367 31.0742 9.50977C31.0742 9.90039 30.9824 10.2812 30.7988 10.6523C30.6191 11.0195 30.3711 11.3145 30.0547 11.5371C29.7422 11.7559 29.3555 11.8906 28.8945 11.9414C28.6055 11.9727 27.9082 11.9922 26.8027 12H23.8789V3.41016ZM25.6133 4.83984V6.82617H26.75C27.4258 6.82617 27.8457 6.81641 28.0098 6.79688C28.3066 6.76172 28.5391 6.66016 28.707 6.49219C28.8789 6.32031 28.9648 6.0957 28.9648 5.81836C28.9648 5.55273 28.8906 5.33789 28.7422 5.17383C28.5977 5.00586 28.3809 4.9043 28.0918 4.86914C27.9199 4.84961 27.4258 4.83984 26.6094 4.83984H25.6133ZM25.6133 8.25586V10.5527H27.2188C27.8438 10.5527 28.2402 10.5352 28.4082 10.5C28.666 10.4531 28.875 10.3398 29.0352 10.1602C29.1992 9.97656 29.2812 9.73242 29.2812 9.42773C29.2812 9.16992 29.2188 8.95117 29.0938 8.77148C28.9688 8.5918 28.7871 8.46094 28.5488 8.37891C28.3145 8.29688 27.8027 8.25586 27.0137 8.25586H25.6133ZM36.1367 10.0195L37.7773 10.2949C37.5664 10.8965 37.2324 11.3555 36.7754 11.6719C36.3223 11.9844 35.7539 12.1406 35.0703 12.1406C33.9883 12.1406 33.1875 11.7871 32.668 11.0801C32.2578 10.5137 32.0527 9.79883 32.0527 8.93555C32.0527 7.9043 32.3223 7.09766 32.8613 6.51562C33.4004 5.92969 34.082 5.63672 34.9062 5.63672C35.832 5.63672 36.5625 5.94336 37.0977 6.55664C37.6328 7.16602 37.8887 8.10156 37.8652 9.36328H33.7402C33.752 9.85156 33.8848 10.2324 34.1387 10.5059C34.3926 10.7754 34.709 10.9102 35.0879 10.9102C35.3457 10.9102 35.5625 10.8398 35.7383 10.6992C35.9141 10.5586 36.0469 10.332 36.1367 10.0195ZM36.2305 8.35547C36.2188 7.87891 36.0957 7.51758 35.8613 7.27148C35.627 7.02148 35.3418 6.89648 35.0059 6.89648C34.6465 6.89648 34.3496 7.02734 34.1152 7.28906C33.8809 7.55078 33.7656 7.90625 33.7695 8.35547H36.2305ZM39.166 5.77734H40.7012V6.69141C40.9004 6.37891 41.1699 6.125 41.5098 5.92969C41.8496 5.73438 42.2266 5.63672 42.6406 5.63672C43.3633 5.63672 43.9766 5.91992 44.4805 6.48633C44.9844 7.05273 45.2363 7.8418 45.2363 8.85352C45.2363 9.89258 44.9824 10.7012 44.4746 11.2793C43.9668 11.8535 43.3516 12.1406 42.6289 12.1406C42.2852 12.1406 41.9727 12.0723 41.6914 11.9355C41.4141 11.7988 41.1211 11.5645 40.8125 11.2324V14.3672H39.166V5.77734ZM40.7949 8.7832C40.7949 9.48242 40.9336 10 41.2109 10.3359C41.4883 10.668 41.8262 10.834 42.2246 10.834C42.6074 10.834 42.9258 10.6816 43.1797 10.377C43.4336 10.0684 43.5605 9.56445 43.5605 8.86523C43.5605 8.21289 43.4297 7.72852 43.168 7.41211C42.9062 7.0957 42.582 6.9375 42.1953 6.9375C41.793 6.9375 41.459 7.09375 41.1934 7.40625C40.9277 7.71484 40.7949 8.17383 40.7949 8.7832ZM46.4844 5.77734H48.1309V8.05664H50.4863V5.77734H52.1387V12H50.4863V9.38672H48.1309V12H46.4844V5.77734ZM53.0234 5.77734H54.7754L56.2637 10.1953L57.7168 5.77734H59.4219L57.2246 11.7656L56.832 12.8496C56.6875 13.2129 56.5488 13.4902 56.416 13.6816C56.2871 13.873 56.1367 14.0273 55.9648 14.1445C55.7969 14.2656 55.5879 14.3594 55.3379 14.4258C55.0918 14.4922 54.8125 14.5254 54.5 14.5254C54.1836 14.5254 53.873 14.4922 53.5684 14.4258L53.4219 13.1367C53.6797 13.1875 53.9121 13.2129 54.1191 13.2129C54.502 13.2129 54.7852 13.0996 54.9688 12.873C55.1523 12.6504 55.293 12.3652 55.3906 12.0176L53.0234 5.77734ZM59.8965 5.77734H65.5273V7.10742H63.5352V12H61.8887V7.10742H59.8965V5.77734ZM66.5527 5.77734H68.1992V8.36133H69.8516C70.5 8.36133 70.998 8.4082 71.3457 8.50195C71.6934 8.5957 71.9824 8.79883 72.2129 9.11133C72.4434 9.41992 72.5586 9.7793 72.5586 10.1895C72.5586 10.791 72.3516 11.2441 71.9375 11.5488C71.5273 11.8496 70.9102 12 70.0859 12H66.5527V5.77734ZM68.1992 10.957H69.7344C70.2148 10.957 70.5215 10.8789 70.6543 10.7227C70.791 10.5664 70.8594 10.3809 70.8594 10.166C70.8594 9.86523 70.7422 9.6582 70.5078 9.54492C70.2773 9.43164 69.8652 9.375 69.2715 9.375H68.1992V10.957ZM79.3262 7.61719L77.7031 7.91016C77.6484 7.58594 77.5234 7.3418 77.3281 7.17773C77.1367 7.01367 76.8867 6.93164 76.5781 6.93164C76.168 6.93164 75.8398 7.07422 75.5938 7.35938C75.3516 7.64062 75.2305 8.11328 75.2305 8.77734C75.2305 9.51562 75.3535 10.0371 75.5996 10.3418C75.8496 10.6465 76.1836 10.7988 76.6016 10.7988C76.9141 10.7988 77.1699 10.7109 77.3691 10.5352C77.5684 10.3555 77.709 10.0488 77.791 9.61523L79.4082 9.89062C79.2402 10.6328 78.918 11.1934 78.4414 11.5723C77.9648 11.9512 77.3262 12.1406 76.5254 12.1406C75.6152 12.1406 74.8887 11.8535 74.3457 11.2793C73.8066 10.7051 73.5371 9.91016 73.5371 8.89453C73.5371 7.86719 73.8086 7.06836 74.3516 6.49805C74.8945 5.92383 75.6289 5.63672 76.5547 5.63672C77.3125 5.63672 77.9141 5.80078 78.3594 6.12891C78.8086 6.45312 79.1309 6.94922 79.3262 7.61719ZM85.9121 5.77734V12H84.2773V9.41602H84.125C83.7695 9.41602 83.5078 9.46289 83.3398 9.55664C83.1758 9.64648 82.9922 9.83984 82.7891 10.1367L82.6895 10.2598L81.6055 12H79.6895L80.8672 10.1953C81.2031 9.67969 81.5078 9.38281 81.7812 9.30469C81.3203 9.27734 80.9453 9.10352 80.6562 8.7832C80.3711 8.45898 80.2285 8.04688 80.2285 7.54688C80.2285 7.14453 80.3223 6.80078 80.5098 6.51562C80.7012 6.23047 80.9531 6.03711 81.2656 5.93555C81.582 5.83008 82.0508 5.77734 82.6719 5.77734H85.9121ZM84.2773 6.83789H83.0996C82.666 6.83789 82.3613 6.90039 82.1855 7.02539C82.0098 7.14648 81.9219 7.34961 81.9219 7.63477C81.9219 7.91992 82.0215 8.125 82.2207 8.25C82.4199 8.375 82.7461 8.4375 83.1992 8.4375H84.2773V6.83789ZM90.8633 5.77734H92.5098V8.05664H94.8652V5.77734H96.5176V12H94.8652V9.38672H92.5098V12H90.8633V5.77734ZM99.4121 7.67578L97.918 7.40625C98.0859 6.80469 98.375 6.35938 98.7852 6.07031C99.1953 5.78125 99.8047 5.63672 100.613 5.63672C101.348 5.63672 101.895 5.72461 102.254 5.90039C102.613 6.07227 102.865 6.29297 103.01 6.5625C103.158 6.82812 103.232 7.31836 103.232 8.0332L103.215 9.95508C103.215 10.502 103.24 10.9062 103.291 11.168C103.346 11.4258 103.445 11.7031 103.59 12H101.961C101.918 11.8906 101.865 11.7285 101.803 11.5137C101.775 11.416 101.756 11.3516 101.744 11.3203C101.463 11.5938 101.162 11.7988 100.842 11.9355C100.521 12.0723 100.18 12.1406 99.8164 12.1406C99.1758 12.1406 98.6699 11.9668 98.2988 11.6191C97.9316 11.2715 97.748 10.832 97.748 10.3008C97.748 9.94922 97.832 9.63672 98 9.36328C98.168 9.08594 98.4023 8.875 98.7031 8.73047C99.0078 8.58203 99.4453 8.45312 100.016 8.34375C100.785 8.19922 101.318 8.06445 101.615 7.93945V7.77539C101.615 7.45898 101.537 7.23438 101.381 7.10156C101.225 6.96484 100.93 6.89648 100.496 6.89648C100.203 6.89648 99.9746 6.95508 99.8105 7.07227C99.6465 7.18555 99.5137 7.38672 99.4121 7.67578ZM101.615 9.01172C101.404 9.08203 101.07 9.16602 100.613 9.26367C100.156 9.36133 99.8574 9.45703 99.7168 9.55078C99.502 9.70312 99.3945 9.89648 99.3945 10.1309C99.3945 10.3613 99.4805 10.5605 99.6523 10.7285C99.8242 10.8965 100.043 10.9805 100.309 10.9805C100.605 10.9805 100.889 10.8828 101.158 10.6875C101.357 10.5391 101.488 10.3574 101.551 10.1426C101.594 10.002 101.615 9.73438 101.615 9.33984V9.01172ZM106.689 9.44531V8.37305C106.975 8.37305 107.182 8.35547 107.311 8.32031C107.439 8.28125 107.561 8.19141 107.674 8.05078C107.791 7.90625 107.85 7.74219 107.85 7.55859C107.85 7.36328 107.777 7.18359 107.633 7.01953C107.492 6.85156 107.279 6.76758 106.994 6.76758C106.775 6.76758 106.58 6.81445 106.408 6.9082C106.236 7.00195 106.08 7.22461 105.939 7.57617L104.545 7.27734C104.686 6.73047 104.986 6.32031 105.447 6.04688C105.908 5.77344 106.434 5.63672 107.023 5.63672C107.773 5.63672 108.354 5.80859 108.764 6.15234C109.178 6.49609 109.385 6.92773 109.385 7.44727C109.385 7.77148 109.295 8.04102 109.115 8.25586C108.939 8.4668 108.66 8.66406 108.277 8.84766C108.738 8.97266 109.082 9.16211 109.309 9.41602C109.539 9.66992 109.654 9.98633 109.654 10.3652C109.654 10.8496 109.428 11.2676 108.975 11.6191C108.521 11.9668 107.869 12.1406 107.018 12.1406C105.533 12.1406 104.625 11.5605 104.293 10.4004L105.799 10.125C106.041 10.7344 106.441 11.0391 107 11.0391C107.309 11.0391 107.555 10.959 107.738 10.7988C107.926 10.6348 108.02 10.4434 108.02 10.2246C108.02 9.98242 107.922 9.79297 107.727 9.65625C107.535 9.51562 107.283 9.44531 106.971 9.44531H106.689ZM112.045 7.67578L110.551 7.40625C110.719 6.80469 111.008 6.35938 111.418 6.07031C111.828 5.78125 112.438 5.63672 113.246 5.63672C113.98 5.63672 114.527 5.72461 114.887 5.90039C115.246 6.07227 115.498 6.29297 115.643 6.5625C115.791 6.82812 115.865 7.31836 115.865 8.0332L115.848 9.95508C115.848 10.502 115.873 10.9062 115.924 11.168C115.979 11.4258 116.078 11.7031 116.223 12H114.594C114.551 11.8906 114.498 11.7285 114.436 11.5137C114.408 11.416 114.389 11.3516 114.377 11.3203C114.096 11.5938 113.795 11.7988 113.475 11.9355C113.154 12.0723 112.812 12.1406 112.449 12.1406C111.809 12.1406 111.303 11.9668 110.932 11.6191C110.564 11.2715 110.381 10.832 110.381 10.3008C110.381 9.94922 110.465 9.63672 110.633 9.36328C110.801 9.08594 111.035 8.875 111.336 8.73047C111.641 8.58203 112.078 8.45312 112.648 8.34375C113.418 8.19922 113.951 8.06445 114.248 7.93945V7.77539C114.248 7.45898 114.17 7.23438 114.014 7.10156C113.857 6.96484 113.562 6.89648 113.129 6.89648C112.836 6.89648 112.607 6.95508 112.443 7.07227C112.279 7.18555 112.146 7.38672 112.045 7.67578ZM114.248 9.01172C114.037 9.08203 113.703 9.16602 113.246 9.26367C112.789 9.36133 112.49 9.45703 112.35 9.55078C112.135 9.70312 112.027 9.89648 112.027 10.1309C112.027 10.3613 112.113 10.5605 112.285 10.7285C112.457 10.8965 112.676 10.9805 112.941 10.9805C113.238 10.9805 113.521 10.8828 113.791 10.6875C113.99 10.5391 114.121 10.3574 114.184 10.1426C114.227 10.002 114.248 9.73438 114.248 9.33984V9.01172ZM122.639 12H117.928V13.6406H116.592V10.6523H117.266C117.547 10.3398 117.779 9.85156 117.963 9.1875C118.146 8.52344 118.256 7.38672 118.291 5.77734H123.312V10.6523H123.98V13.6406H122.639V12ZM121.684 10.6523L121.689 7.13086H119.697C119.631 8.84961 119.357 10.0234 118.877 10.6523H121.684Z" fill="white"/>
</svg>
