<svg width="40" height="40" viewBox="0 0 40 40" fill="none" xmlns="http://www.w3.org/2000/svg">
<path fill-rule="evenodd" clip-rule="evenodd" d="M35.7952 7.73535C38.5266 11.2396 40.0067 15.557 39.9998 20C39.9998 31.0441 31.0439 39.9999 20.0003 39.9999C12.2296 39.9999 5.49265 35.5661 2.18188 29.0917H10.8988C15.0526 29.0917 17.9542 26.8528 17.9542 23.2738C17.9542 15.6887 9.20393 18.7789 9.20393 16.0871C9.20393 14.7902 10.2444 14.3184 12.1485 14.3184H18.2152C19.8967 14.3184 21.8747 14.62 21.8747 16.4548V22.4994C21.8747 26.8764 25.2926 29.0912 28.8352 29.0912C32.4383 29.0912 35.7947 26.8764 35.7947 22.4994V7.73535H35.7952Z" fill="white"/>
<path fill-rule="evenodd" clip-rule="evenodd" d="M20.0003 1.94593e-05C24.0137 -0.00559095 27.9351 1.20209 31.25 3.46463V22.641C31.25 23.9703 30.1628 25.0579 28.8356 25.0579C27.5069 25.0579 26.4208 23.9703 26.4208 22.641V16.8949C26.4208 12.3077 24.0992 10.3995 21.0756 10.3995H11.2351C7.67258 10.3995 4.71719 12.6672 4.71719 16.2631C4.71719 18.1031 5.5054 20.7995 9.23309 21.4682C12.2695 22.0149 13.468 21.8559 13.468 23.4805C13.468 25.0579 11.7008 25.0579 9.36796 25.0579H0.646429C0.215618 23.4065 -0.00170815 21.7067 -0.000236719 20C-0.000236719 8.95847 8.95668 1.94593e-05 20.0003 1.94593e-05Z" fill="white"/>
</svg>
