<svg width="40" height="32" viewBox="0 0 40 32" fill="none" xmlns="http://www.w3.org/2000/svg">
<path fill-rule="evenodd" clip-rule="evenodd" d="M25.0005 2.43241e-05C30.0173 -0.00698868 34.919 1.50262 39.0626 4.33079V28.3013C39.0626 29.9628 37.7037 31.3224 36.0447 31.3224C34.3838 31.3224 33.0261 29.9628 33.0261 28.3013V21.1186C33.0261 15.3846 30.1242 12.9994 26.3447 12.9994H14.0441C9.59088 12.9994 5.89665 15.834 5.89665 20.3289C5.89665 22.6289 6.8819 25.9994 11.5415 26.8353C15.337 27.5186 16.8351 27.3199 16.8351 29.3506C16.8351 31.3224 14.6261 31.3224 11.7101 31.3224H0.808189C0.269676 29.2582 -0.0019826 27.1334 -0.000143311 25C-0.000143311 11.1981 11.196 2.43241e-05 25.0005 2.43241e-05Z" fill="white"/>
</svg>
