<svg width="176" height="28" viewBox="0 0 176 28" fill="none" xmlns="http://www.w3.org/2000/svg">
<path d="M0.292892 13.2929C-0.0976315 13.6834 -0.0976315 14.3166 0.292892 14.7071L6.65685 21.0711C7.04738 21.4616 7.68054 21.4616 8.07107 21.0711C8.46159 20.6805 8.46159 20.0474 8.07107 19.6569L2.41421 14L8.07107 8.34315C8.46159 7.95262 8.46159 7.31946 8.07107 6.92893C7.68054 6.53841 7.04738 6.53841 6.65685 6.92893L0.292892 13.2929ZM31 13L1 13V15L31 15V13Z" fill="white"/>
<path d="M42.1719 8.54688H46.75C47.6562 8.54688 48.3307 8.58594 48.7734 8.66406C49.2214 8.73698 49.6198 8.89323 49.9688 9.13281C50.3229 9.3724 50.6172 9.69271 50.8516 10.0938C51.0859 10.4896 51.2031 10.9349 51.2031 11.4297C51.2031 11.9661 51.0573 12.4583 50.7656 12.9062C50.4792 13.3542 50.0885 13.6901 49.5938 13.9141C50.2917 14.1172 50.8281 14.4635 51.2031 14.9531C51.5781 15.4427 51.7656 16.0182 51.7656 16.6797C51.7656 17.2005 51.6432 17.7083 51.3984 18.2031C51.1589 18.6927 50.8281 19.0859 50.4062 19.3828C49.9896 19.6745 49.474 19.8542 48.8594 19.9219C48.474 19.9635 47.5443 19.9896 46.0703 20H42.1719V8.54688ZM44.4844 10.4531V13.1016H46C46.901 13.1016 47.4609 13.0885 47.6797 13.0625C48.0755 13.0156 48.3854 12.8802 48.6094 12.6562C48.8385 12.4271 48.9531 12.1276 48.9531 11.7578C48.9531 11.4036 48.8542 11.1172 48.6562 10.8984C48.4635 10.6745 48.1745 10.5391 47.7891 10.4922C47.5599 10.4661 46.901 10.4531 45.8125 10.4531H44.4844ZM44.4844 15.0078V18.0703H46.625C47.4583 18.0703 47.987 18.0469 48.2109 18C48.5547 17.9375 48.8333 17.7865 49.0469 17.5469C49.2656 17.3021 49.375 16.9766 49.375 16.5703C49.375 16.2266 49.2917 15.9349 49.125 15.6953C48.9583 15.4557 48.7161 15.2812 48.3984 15.1719C48.0859 15.0625 47.4036 15.0078 46.3516 15.0078H44.4844ZM58.5156 17.3594L60.7031 17.7266C60.4219 18.5286 59.9766 19.1406 59.3672 19.5625C58.763 19.9792 58.0052 20.1875 57.0938 20.1875C55.651 20.1875 54.5833 19.7161 53.8906 18.7734C53.3438 18.0182 53.0703 17.0651 53.0703 15.9141C53.0703 14.5391 53.4297 13.4635 54.1484 12.6875C54.8672 11.9062 55.776 11.5156 56.875 11.5156C58.1094 11.5156 59.0833 11.9245 59.7969 12.7422C60.5104 13.5547 60.8516 14.8021 60.8203 16.4844H55.3203C55.3359 17.1354 55.513 17.6432 55.8516 18.0078C56.1901 18.3672 56.612 18.5469 57.1172 18.5469C57.4609 18.5469 57.75 18.4531 57.9844 18.2656C58.2188 18.0781 58.3958 17.776 58.5156 17.3594ZM58.6406 15.1406C58.625 14.5052 58.4609 14.0234 58.1484 13.6953C57.8359 13.362 57.4557 13.1953 57.0078 13.1953C56.5286 13.1953 56.1328 13.3698 55.8203 13.7188C55.5078 14.0677 55.3542 14.5417 55.3594 15.1406H58.6406ZM62.5547 11.7031H64.6016V12.9219C64.8672 12.5052 65.2266 12.1667 65.6797 11.9062C66.1328 11.6458 66.6354 11.5156 67.1875 11.5156C68.151 11.5156 68.9688 11.8932 69.6406 12.6484C70.3125 13.4036 70.6484 14.4557 70.6484 15.8047C70.6484 17.1901 70.3099 18.2682 69.6328 19.0391C68.9557 19.8047 68.1354 20.1875 67.1719 20.1875C66.7135 20.1875 66.2969 20.0964 65.9219 19.9141C65.5521 19.7318 65.1615 19.4193 64.75 18.9766V23.1562H62.5547V11.7031ZM64.7266 15.7109C64.7266 16.6432 64.9115 17.3333 65.2812 17.7812C65.651 18.224 66.1016 18.4453 66.6328 18.4453C67.1432 18.4453 67.5677 18.2422 67.9062 17.8359C68.2448 17.4245 68.4141 16.7526 68.4141 15.8203C68.4141 14.9505 68.2396 14.3047 67.8906 13.8828C67.5417 13.4609 67.1094 13.25 66.5938 13.25C66.0573 13.25 65.612 13.4583 65.2578 13.875C64.9036 14.2865 64.7266 14.8984 64.7266 15.7109ZM72.3125 11.7031H74.5078V14.7422H77.6484V11.7031H79.8516V20H77.6484V16.5156H74.5078V20H72.3125V11.7031ZM81.0312 11.7031H83.3672L85.3516 17.5938L87.2891 11.7031H89.5625L86.6328 19.6875L86.1094 21.1328C85.9167 21.6172 85.7318 21.987 85.5547 22.2422C85.3828 22.4974 85.1823 22.7031 84.9531 22.8594C84.7292 23.0208 84.4505 23.1458 84.1172 23.2344C83.7891 23.3229 83.4167 23.3672 83 23.3672C82.5781 23.3672 82.1641 23.3229 81.7578 23.2344L81.5625 21.5156C81.9062 21.5833 82.2161 21.6172 82.4922 21.6172C83.0026 21.6172 83.3802 21.4661 83.625 21.1641C83.8698 20.8672 84.0573 20.487 84.1875 20.0234L81.0312 11.7031ZM90.1953 11.7031H97.7031V13.4766H95.0469V20H92.8516V13.4766H90.1953V11.7031ZM99.0703 11.7031H101.266V15.1484H103.469C104.333 15.1484 104.997 15.2109 105.461 15.3359C105.924 15.4609 106.31 15.7318 106.617 16.1484C106.924 16.5599 107.078 17.0391 107.078 17.5859C107.078 18.388 106.802 18.9922 106.25 19.3984C105.703 19.7995 104.88 20 103.781 20H99.0703V11.7031ZM101.266 18.6094H103.312C103.953 18.6094 104.362 18.5052 104.539 18.2969C104.721 18.0885 104.812 17.8411 104.812 17.5547C104.812 17.1536 104.656 16.8776 104.344 16.7266C104.036 16.5755 103.487 16.5 102.695 16.5H101.266V18.6094ZM116.102 14.1562L113.938 14.5469C113.865 14.1146 113.698 13.7891 113.438 13.5703C113.182 13.3516 112.849 13.2422 112.438 13.2422C111.891 13.2422 111.453 13.4323 111.125 13.8125C110.802 14.1875 110.641 14.8177 110.641 15.7031C110.641 16.6875 110.805 17.3828 111.133 17.7891C111.466 18.1953 111.911 18.3984 112.469 18.3984C112.885 18.3984 113.227 18.2812 113.492 18.0469C113.758 17.8073 113.945 17.3984 114.055 16.8203L116.211 17.1875C115.987 18.1771 115.557 18.9245 114.922 19.4297C114.286 19.9349 113.435 20.1875 112.367 20.1875C111.154 20.1875 110.185 19.8047 109.461 19.0391C108.742 18.2734 108.383 17.2135 108.383 15.8594C108.383 14.4896 108.745 13.4245 109.469 12.6641C110.193 11.8984 111.172 11.5156 112.406 11.5156C113.417 11.5156 114.219 11.7344 114.812 12.1719C115.411 12.6042 115.841 13.2656 116.102 14.1562ZM124.883 11.7031V20H122.703V16.5547H122.5C122.026 16.5547 121.677 16.6172 121.453 16.7422C121.234 16.862 120.99 17.1198 120.719 17.5156L120.586 17.6797L119.141 20H116.586L118.156 17.5938C118.604 16.9062 119.01 16.5104 119.375 16.4062C118.76 16.3698 118.26 16.138 117.875 15.7109C117.495 15.2786 117.305 14.7292 117.305 14.0625C117.305 13.526 117.43 13.0677 117.68 12.6875C117.935 12.3073 118.271 12.0495 118.688 11.9141C119.109 11.7734 119.734 11.7031 120.562 11.7031H124.883ZM122.703 13.1172H121.133C120.555 13.1172 120.148 13.2005 119.914 13.3672C119.68 13.5286 119.562 13.7995 119.562 14.1797C119.562 14.5599 119.695 14.8333 119.961 15C120.227 15.1667 120.661 15.25 121.266 15.25H122.703V13.1172ZM131.484 11.7031H133.68V14.7422H136.82V11.7031H139.023V20H136.82V16.5156H133.68V20H131.484V11.7031ZM142.883 14.2344L140.891 13.875C141.115 13.0729 141.5 12.4792 142.047 12.0938C142.594 11.7083 143.406 11.5156 144.484 11.5156C145.464 11.5156 146.193 11.6328 146.672 11.8672C147.151 12.0964 147.487 12.3906 147.68 12.75C147.878 13.1042 147.977 13.7578 147.977 14.7109L147.953 17.2734C147.953 18.0026 147.987 18.5417 148.055 18.8906C148.128 19.2344 148.26 19.6042 148.453 20H146.281C146.224 19.8542 146.154 19.638 146.07 19.3516C146.034 19.2214 146.008 19.1354 145.992 19.0938C145.617 19.4583 145.216 19.7318 144.789 19.9141C144.362 20.0964 143.906 20.1875 143.422 20.1875C142.568 20.1875 141.893 19.9557 141.398 19.4922C140.909 19.0286 140.664 18.4427 140.664 17.7344C140.664 17.2656 140.776 16.849 141 16.4844C141.224 16.1146 141.536 15.8333 141.938 15.6406C142.344 15.4427 142.927 15.2708 143.688 15.125C144.714 14.9323 145.424 14.7526 145.82 14.5859V14.3672C145.82 13.9453 145.716 13.6458 145.508 13.4688C145.299 13.2865 144.906 13.1953 144.328 13.1953C143.938 13.1953 143.633 13.2734 143.414 13.4297C143.195 13.5807 143.018 13.849 142.883 14.2344ZM145.82 16.0156C145.539 16.1094 145.094 16.2214 144.484 16.3516C143.875 16.4818 143.477 16.6094 143.289 16.7344C143.003 16.9375 142.859 17.1953 142.859 17.5078C142.859 17.8151 142.974 18.0807 143.203 18.3047C143.432 18.5286 143.724 18.6406 144.078 18.6406C144.474 18.6406 144.852 18.5104 145.211 18.25C145.477 18.0521 145.651 17.8099 145.734 17.5234C145.792 17.3359 145.82 16.9792 145.82 16.4531V16.0156ZM152.586 16.5938V15.1641C152.966 15.1641 153.242 15.1406 153.414 15.0938C153.586 15.0417 153.747 14.9219 153.898 14.7344C154.055 14.5417 154.133 14.3229 154.133 14.0781C154.133 13.8177 154.036 13.5781 153.844 13.3594C153.656 13.1354 153.372 13.0234 152.992 13.0234C152.701 13.0234 152.44 13.0859 152.211 13.2109C151.982 13.3359 151.773 13.6328 151.586 14.1016L149.727 13.7031C149.914 12.974 150.315 12.4271 150.93 12.0625C151.544 11.6979 152.245 11.5156 153.031 11.5156C154.031 11.5156 154.805 11.7448 155.352 12.2031C155.904 12.6615 156.18 13.237 156.18 13.9297C156.18 14.362 156.06 14.7214 155.82 15.0078C155.586 15.2891 155.214 15.5521 154.703 15.7969C155.318 15.9635 155.776 16.2161 156.078 16.5547C156.385 16.8932 156.539 17.3151 156.539 17.8203C156.539 18.4661 156.237 19.0234 155.633 19.4922C155.029 19.9557 154.159 20.1875 153.023 20.1875C151.044 20.1875 149.833 19.4141 149.391 17.8672L151.398 17.5C151.721 18.3125 152.255 18.7188 153 18.7188C153.411 18.7188 153.74 18.612 153.984 18.3984C154.234 18.1797 154.359 17.9245 154.359 17.6328C154.359 17.3099 154.229 17.0573 153.969 16.875C153.714 16.6875 153.378 16.5938 152.961 16.5938H152.586ZM159.727 14.2344L157.734 13.875C157.958 13.0729 158.344 12.4792 158.891 12.0938C159.438 11.7083 160.25 11.5156 161.328 11.5156C162.307 11.5156 163.036 11.6328 163.516 11.8672C163.995 12.0964 164.331 12.3906 164.523 12.75C164.721 13.1042 164.82 13.7578 164.82 14.7109L164.797 17.2734C164.797 18.0026 164.831 18.5417 164.898 18.8906C164.971 19.2344 165.104 19.6042 165.297 20H163.125C163.068 19.8542 162.997 19.638 162.914 19.3516C162.878 19.2214 162.852 19.1354 162.836 19.0938C162.461 19.4583 162.06 19.7318 161.633 19.9141C161.206 20.0964 160.75 20.1875 160.266 20.1875C159.411 20.1875 158.737 19.9557 158.242 19.4922C157.753 19.0286 157.508 18.4427 157.508 17.7344C157.508 17.2656 157.62 16.849 157.844 16.4844C158.068 16.1146 158.38 15.8333 158.781 15.6406C159.188 15.4427 159.771 15.2708 160.531 15.125C161.557 14.9323 162.268 14.7526 162.664 14.5859V14.3672C162.664 13.9453 162.56 13.6458 162.352 13.4688C162.143 13.2865 161.75 13.1953 161.172 13.1953C160.781 13.1953 160.477 13.2734 160.258 13.4297C160.039 13.5807 159.862 13.849 159.727 14.2344ZM162.664 16.0156C162.383 16.1094 161.938 16.2214 161.328 16.3516C160.719 16.4818 160.32 16.6094 160.133 16.7344C159.846 16.9375 159.703 17.1953 159.703 17.5078C159.703 17.8151 159.818 18.0807 160.047 18.3047C160.276 18.5286 160.568 18.6406 160.922 18.6406C161.318 18.6406 161.695 18.5104 162.055 18.25C162.32 18.0521 162.495 17.8099 162.578 17.5234C162.635 17.3359 162.664 16.9792 162.664 16.4531V16.0156ZM173.852 20H167.57V22.1875H165.789V18.2031H166.688C167.062 17.7865 167.372 17.1354 167.617 16.25C167.862 15.3646 168.008 13.849 168.055 11.7031H174.75V18.2031H175.641V22.1875H173.852V20ZM172.578 18.2031L172.586 13.5078H169.93C169.841 15.7995 169.477 17.3646 168.836 18.2031H172.578Z" fill="white"/>
</svg>
