<svg width="227" height="28" viewBox="0 0 227 28" fill="none" xmlns="http://www.w3.org/2000/svg">
<path d="M0.292892 13.2929C-0.0976315 13.6834 -0.0976315 14.3166 0.292892 14.7071L6.65685 21.0711C7.04738 21.4616 7.68054 21.4616 8.07107 21.0711C8.46159 20.6805 8.46159 20.0474 8.07107 19.6569L2.41421 14L8.07107 8.34315C8.46159 7.95262 8.46159 7.31946 8.07107 6.92893C7.68054 6.53841 7.04738 6.53841 6.65685 6.92893L0.292892 13.2929ZM31 13L1 13V15L31 15V13Z" fill="white"/>
<path d="M42.6113 6.25195H48.9062C50.1523 6.25195 51.0798 6.30566 51.6885 6.41309C52.3044 6.51335 52.8522 6.72819 53.332 7.05762C53.819 7.38704 54.2236 7.82747 54.5459 8.37891C54.8682 8.92318 55.0293 9.53548 55.0293 10.2158C55.0293 10.9535 54.8288 11.6302 54.4277 12.2461C54.0339 12.862 53.4967 13.3239 52.8164 13.6318C53.776 13.9111 54.5137 14.3874 55.0293 15.0605C55.5449 15.7337 55.8027 16.5251 55.8027 17.4346C55.8027 18.1507 55.6344 18.849 55.2979 19.5293C54.9684 20.2025 54.5137 20.7432 53.9336 21.1514C53.3607 21.5524 52.6517 21.7995 51.8066 21.8926C51.2767 21.9499 49.9984 21.9857 47.9717 22H42.6113V6.25195ZM45.791 8.87305V12.5146H47.875C49.1139 12.5146 49.8838 12.4967 50.1846 12.4609C50.7288 12.3965 51.1549 12.2103 51.4629 11.9023C51.778 11.5872 51.9355 11.1755 51.9355 10.667C51.9355 10.18 51.7995 9.78613 51.5273 9.48535C51.2624 9.17741 50.8649 8.99121 50.335 8.92676C50.0199 8.89095 49.1139 8.87305 47.6172 8.87305H45.791ZM45.791 15.1357V19.3467H48.7344C49.8802 19.3467 50.6071 19.3145 50.915 19.25C51.3877 19.1641 51.7708 18.9564 52.0645 18.627C52.3652 18.2904 52.5156 17.8428 52.5156 17.2842C52.5156 16.8115 52.401 16.4105 52.1719 16.0811C51.9427 15.7516 51.6097 15.5117 51.1729 15.3613C50.7432 15.2109 49.805 15.1357 48.3584 15.1357H45.791ZM65.084 18.3691L68.0918 18.874C67.7051 19.9769 67.0928 20.8184 66.2549 21.3984C65.4242 21.9714 64.3822 22.2578 63.1289 22.2578C61.1452 22.2578 59.6771 21.6097 58.7246 20.3135C57.9727 19.2751 57.5967 17.9645 57.5967 16.3818C57.5967 14.4912 58.0908 13.0124 59.0791 11.9453C60.0674 10.8711 61.3171 10.334 62.8281 10.334C64.5254 10.334 65.8646 10.8962 66.8457 12.0205C67.8268 13.1377 68.2959 14.8529 68.2529 17.166H60.6904C60.7119 18.0612 60.9554 18.7594 61.4209 19.2607C61.8864 19.7549 62.4665 20.002 63.1611 20.002C63.6338 20.002 64.0312 19.873 64.3535 19.6152C64.6758 19.3574 64.9193 18.9421 65.084 18.3691ZM65.2559 15.3184C65.2344 14.4447 65.0088 13.7822 64.5791 13.3311C64.1494 12.8727 63.6266 12.6436 63.0107 12.6436C62.3519 12.6436 61.8076 12.8835 61.3779 13.3633C60.9482 13.8431 60.737 14.4948 60.7441 15.3184H65.2559ZM70.6377 10.5918H73.4521V12.2676C73.8174 11.6947 74.3115 11.2292 74.9346 10.8711C75.5576 10.513 76.2487 10.334 77.0078 10.334C78.3327 10.334 79.457 10.8532 80.3809 11.8916C81.3047 12.93 81.7666 14.3766 81.7666 16.2314C81.7666 18.1364 81.3011 19.6188 80.3701 20.6787C79.4391 21.7314 78.3112 22.2578 76.9863 22.2578C76.3561 22.2578 75.7832 22.1325 75.2676 21.8818C74.7591 21.6312 74.222 21.2015 73.6562 20.5928V26.3398H70.6377V10.5918ZM73.624 16.1025C73.624 17.3844 73.8783 18.3333 74.3867 18.9492C74.8952 19.5579 75.5146 19.8623 76.2451 19.8623C76.9469 19.8623 77.5306 19.583 77.9961 19.0244C78.4616 18.4587 78.6943 17.5348 78.6943 16.2529C78.6943 15.057 78.4544 14.1689 77.9746 13.5889C77.4948 13.0088 76.9004 12.7188 76.1914 12.7188C75.4538 12.7188 74.8415 13.0052 74.3545 13.5781C73.8675 14.1439 73.624 14.9854 73.624 16.1025ZM84.0547 10.5918H87.0732V14.7705H91.3916V10.5918H94.4209V22H91.3916V17.209H87.0732V22H84.0547V10.5918ZM96.043 10.5918H99.2549L101.983 18.6914L104.647 10.5918H107.773L103.745 21.5703L103.025 23.5576C102.76 24.2236 102.506 24.7321 102.263 25.083C102.026 25.4339 101.751 25.7168 101.436 25.9316C101.128 26.1536 100.744 26.3255 100.286 26.4473C99.835 26.569 99.3229 26.6299 98.75 26.6299C98.1699 26.6299 97.6006 26.569 97.042 26.4473L96.7734 24.084C97.2461 24.1771 97.6722 24.2236 98.0518 24.2236C98.7536 24.2236 99.2728 24.016 99.6094 23.6006C99.946 23.1924 100.204 22.6696 100.383 22.0322L96.043 10.5918ZM108.644 10.5918H118.967V13.0303H115.314V22H112.296V13.0303H108.644V10.5918ZM120.847 10.5918H123.865V15.3291H126.895C128.083 15.3291 128.996 15.415 129.634 15.5869C130.271 15.7588 130.801 16.1312 131.224 16.7041C131.646 17.2699 131.857 17.9287 131.857 18.6807C131.857 19.7835 131.478 20.6143 130.719 21.1729C129.967 21.7243 128.835 22 127.324 22H120.847V10.5918ZM123.865 20.0879H126.68C127.561 20.0879 128.123 19.9447 128.366 19.6582C128.617 19.3717 128.742 19.0316 128.742 18.6377C128.742 18.0863 128.527 17.7067 128.098 17.499C127.675 17.2913 126.92 17.1875 125.831 17.1875H123.865V20.0879ZM144.265 13.9648L141.289 14.502C141.189 13.9076 140.96 13.46 140.602 13.1592C140.251 12.8584 139.792 12.708 139.227 12.708C138.475 12.708 137.873 12.9694 137.422 13.4922C136.978 14.0078 136.756 14.8743 136.756 16.0918C136.756 17.4453 136.981 18.4014 137.433 18.96C137.891 19.5186 138.503 19.7979 139.27 19.7979C139.842 19.7979 140.312 19.6367 140.677 19.3145C141.042 18.985 141.3 18.4229 141.45 17.6279L144.415 18.1328C144.107 19.4935 143.516 20.5212 142.643 21.2158C141.769 21.9105 140.598 22.2578 139.13 22.2578C137.461 22.2578 136.129 21.7314 135.134 20.6787C134.146 19.626 133.651 18.1686 133.651 16.3066C133.651 14.4232 134.149 12.9587 135.145 11.9131C136.14 10.8604 137.486 10.334 139.184 10.334C140.573 10.334 141.676 10.6348 142.492 11.2363C143.316 11.8307 143.907 12.7402 144.265 13.9648ZM156.339 10.5918V22H153.342V17.2627H153.062C152.411 17.2627 151.931 17.3486 151.623 17.5205C151.322 17.6852 150.986 18.0397 150.613 18.584L150.431 18.8096L148.443 22H144.931L147.09 18.6914C147.706 17.7461 148.264 17.2018 148.766 17.0586C147.921 17.0085 147.233 16.6898 146.703 16.1025C146.18 15.5081 145.919 14.7526 145.919 13.8359C145.919 13.0983 146.091 12.4681 146.435 11.9453C146.785 11.4225 147.247 11.068 147.82 10.8818C148.4 10.6885 149.26 10.5918 150.398 10.5918H156.339ZM153.342 12.5361H151.183C150.388 12.5361 149.829 12.6507 149.507 12.8799C149.185 13.1019 149.023 13.4743 149.023 13.9971C149.023 14.5199 149.206 14.8958 149.571 15.125C149.937 15.3542 150.535 15.4688 151.365 15.4688H153.342V12.5361ZM165.416 10.5918H168.435V14.7705H172.753V10.5918H175.782V22H172.753V17.209H168.435V22H165.416V10.5918ZM181.089 14.0723L178.35 13.5781C178.658 12.4753 179.188 11.6589 179.939 11.1289C180.691 10.599 181.809 10.334 183.291 10.334C184.637 10.334 185.64 10.4951 186.299 10.8174C186.958 11.1325 187.42 11.5371 187.685 12.0312C187.957 12.5182 188.093 13.417 188.093 14.7275L188.061 18.251C188.061 19.2536 188.107 19.9948 188.2 20.4746C188.3 20.9473 188.483 21.4557 188.748 22H185.762C185.683 21.7995 185.586 21.5023 185.472 21.1084C185.422 20.9294 185.386 20.8112 185.364 20.7539C184.849 21.2552 184.297 21.6312 183.71 21.8818C183.123 22.1325 182.496 22.2578 181.83 22.2578C180.656 22.2578 179.728 21.9391 179.048 21.3018C178.375 20.6644 178.038 19.8587 178.038 18.8848C178.038 18.2402 178.192 17.6673 178.5 17.166C178.808 16.6576 179.238 16.2708 179.789 16.0059C180.348 15.7337 181.15 15.4974 182.195 15.2969C183.606 15.0319 184.584 14.7848 185.128 14.5557V14.2549C185.128 13.6748 184.985 13.263 184.698 13.0195C184.412 12.7689 183.871 12.6436 183.076 12.6436C182.539 12.6436 182.12 12.751 181.819 12.9658C181.519 13.1735 181.275 13.5423 181.089 14.0723ZM185.128 16.5215C184.741 16.6504 184.129 16.8044 183.291 16.9834C182.453 17.1624 181.905 17.3379 181.647 17.5098C181.254 17.7891 181.057 18.1436 181.057 18.5732C181.057 18.9958 181.214 19.361 181.529 19.6689C181.844 19.9769 182.245 20.1309 182.732 20.1309C183.277 20.1309 183.796 19.9518 184.29 19.5938C184.655 19.3216 184.895 18.9886 185.01 18.5947C185.089 18.3369 185.128 17.8464 185.128 17.123V16.5215ZM194.431 17.3164V15.3506C194.953 15.3506 195.333 15.3184 195.569 15.2539C195.806 15.1823 196.028 15.0176 196.235 14.7598C196.45 14.4948 196.558 14.194 196.558 13.8574C196.558 13.4993 196.425 13.1699 196.16 12.8691C195.902 12.5612 195.512 12.4072 194.989 12.4072C194.588 12.4072 194.23 12.4932 193.915 12.665C193.6 12.8369 193.313 13.2451 193.056 13.8896L190.499 13.3418C190.757 12.3392 191.308 11.5872 192.153 11.0859C192.998 10.5846 193.962 10.334 195.043 10.334C196.418 10.334 197.481 10.6491 198.233 11.2793C198.993 11.9095 199.372 12.7008 199.372 13.6533C199.372 14.2477 199.207 14.7419 198.878 15.1357C198.556 15.5225 198.044 15.8841 197.342 16.2207C198.187 16.4499 198.817 16.7972 199.232 17.2627C199.655 17.7282 199.866 18.3083 199.866 19.0029C199.866 19.891 199.451 20.6572 198.62 21.3018C197.789 21.9391 196.593 22.2578 195.032 22.2578C192.311 22.2578 190.646 21.1943 190.037 19.0674L192.798 18.5625C193.242 19.6797 193.976 20.2383 195 20.2383C195.566 20.2383 196.017 20.0915 196.354 19.7979C196.697 19.4971 196.869 19.1462 196.869 18.7451C196.869 18.3011 196.69 17.9538 196.332 17.7031C195.981 17.4453 195.519 17.3164 194.946 17.3164H194.431ZM204.249 14.0723L201.51 13.5781C201.818 12.4753 202.348 11.6589 203.1 11.1289C203.852 10.599 204.969 10.334 206.451 10.334C207.798 10.334 208.8 10.4951 209.459 10.8174C210.118 11.1325 210.58 11.5371 210.845 12.0312C211.117 12.5182 211.253 13.417 211.253 14.7275L211.221 18.251C211.221 19.2536 211.267 19.9948 211.36 20.4746C211.461 20.9473 211.643 21.4557 211.908 22H208.922C208.843 21.7995 208.746 21.5023 208.632 21.1084C208.582 20.9294 208.546 20.8112 208.524 20.7539C208.009 21.2552 207.457 21.6312 206.87 21.8818C206.283 22.1325 205.656 22.2578 204.99 22.2578C203.816 22.2578 202.888 21.9391 202.208 21.3018C201.535 20.6644 201.198 19.8587 201.198 18.8848C201.198 18.2402 201.352 17.6673 201.66 17.166C201.968 16.6576 202.398 16.2708 202.949 16.0059C203.508 15.7337 204.31 15.4974 205.355 15.2969C206.766 15.0319 207.744 14.7848 208.288 14.5557V14.2549C208.288 13.6748 208.145 13.263 207.858 13.0195C207.572 12.7689 207.031 12.6436 206.236 12.6436C205.699 12.6436 205.28 12.751 204.979 12.9658C204.679 13.1735 204.435 13.5423 204.249 14.0723ZM208.288 16.5215C207.901 16.6504 207.289 16.8044 206.451 16.9834C205.613 17.1624 205.065 17.3379 204.808 17.5098C204.414 17.7891 204.217 18.1436 204.217 18.5732C204.217 18.9958 204.374 19.361 204.689 19.6689C205.005 19.9769 205.406 20.1309 205.893 20.1309C206.437 20.1309 206.956 19.9518 207.45 19.5938C207.815 19.3216 208.055 18.9886 208.17 18.5947C208.249 18.3369 208.288 17.8464 208.288 17.123V16.5215ZM223.671 22H215.034V25.0078H212.585V19.5293H213.82C214.336 18.9564 214.762 18.0612 215.099 16.8438C215.435 15.6263 215.636 13.5423 215.7 10.5918H224.906V19.5293H226.131V25.0078H223.671V22ZM221.92 19.5293L221.931 13.0732H218.278C218.157 16.2243 217.655 18.3763 216.774 19.5293H221.92Z" fill="white"/>
</svg>
